<svg width="48" height="48" viewBox="0 0 48 48" fill="none" xmlns="http://www.w3.org/2000/svg">
<path d="M37 20L38.0414 19.055C37.7748 18.7613 37.3966 18.5938 37 18.5938V20ZM44 27.7143H45.4062C45.4062 27.3649 45.2762 27.028 45.0414 26.7693L44 27.7143ZM44 36L44.0002 37.4062C44.7767 37.4061 45.4062 36.7766 45.4062 36H44ZM39.8295 36.0006L38.5035 36.4689V36.4689L39.8295 36.0006ZM34.1705 36.0006L35.4964 36.4689V36.4689L34.1705 36.0006ZM30 20V18.5938C29.2233 18.5938 28.5937 19.2233 28.5937 20H30ZM1.99997 10.5938C1.22332 10.5938 0.593721 11.2233 0.593721 12C0.593721 12.7767 1.22332 13.4062 1.99997 13.4062V10.5938ZM30 12H31.4062C31.4062 11.2233 30.7766 10.5938 30 10.5938V12ZM8.00035 34.5938C7.2237 34.5935 6.59393 35.223 6.59372 35.9996C6.59351 36.7763 7.22294 37.406 7.99959 37.4062L8.00035 34.5938ZM8.99997 25.4062C9.77662 25.4062 10.4062 24.7767 10.4062 24C10.4062 23.2233 9.77662 22.5938 8.99997 22.5938V25.4062ZM5.99997 22.5938C5.22332 22.5938 4.59372 23.2233 4.59372 24C4.59372 24.7767 5.22332 25.4062 5.99997 25.4062V22.5938ZM8.99997 31.4062C9.77662 31.4062 10.4062 30.7766 10.4062 30C10.4062 29.2234 9.77662 28.5938 8.99997 28.5938V31.4062ZM7.99997 28.5938C7.22332 28.5938 6.59372 29.2234 6.59372 30C6.59372 30.7766 7.22332 31.4062 7.99997 31.4062V28.5938ZM8.99997 19.4062C9.77662 19.4062 10.4062 18.7767 10.4062 18C10.4062 17.2233 9.77662 16.5938 8.99997 16.5938V19.4062ZM3.99997 16.5938C3.22332 16.5938 2.59372 17.2233 2.59372 18C2.59372 18.7767 3.22332 19.4062 3.99997 19.4062V16.5938ZM35.9586 20.945L42.9586 28.6593L45.0414 26.7693L38.0414 19.055L35.9586 20.945ZM42.5937 27.7143V36H45.4062V27.7143H42.5937ZM43.9998 34.5938L39.8293 34.5943L39.8297 37.4068L44.0002 37.4062L43.9998 34.5938ZM41.1554 35.5322C40.5515 33.8223 38.921 32.5938 37 32.5938V35.4062C37.6918 35.4062 38.2841 35.8479 38.5035 36.4689L41.1554 35.5322ZM37 32.5938C35.0789 32.5938 33.4485 33.8223 32.8445 35.5322L35.4964 36.4689C35.7158 35.8479 36.3081 35.4062 37 35.4062V32.5938ZM34.1707 34.5943L30.0002 34.5938L29.9998 37.4062L34.1703 37.4068L34.1707 34.5943ZM31.4062 36V20H28.5937V36H31.4062ZM30 21.4062H37V18.5938H30V21.4062ZM1.99997 13.4062H30V10.5938H1.99997V13.4062ZM28.5937 12V36H31.4062V12H28.5937ZM29.9999 34.5938L15.8294 34.5943L15.8295 37.4068L30 37.4062L29.9999 34.5938ZM17.1554 35.5322C16.5515 33.8223 14.921 32.5938 13 32.5938V35.4062C13.6918 35.4062 14.2841 35.8479 14.5035 36.4689L17.1554 35.5322ZM13 32.5938C11.0789 32.5938 9.44848 33.8223 8.8445 35.5322L11.4964 36.4689C11.7158 35.8479 12.3081 35.4062 13 35.4062V32.5938ZM10.1708 34.5943L8.00035 34.5938L7.99959 37.4062L10.1701 37.4068L10.1708 34.5943ZM37 35.4062C37.8802 35.4062 38.5937 36.1198 38.5937 37H41.4062C41.4062 34.5665 39.4335 32.5938 37 32.5938V35.4062ZM38.5937 37C38.5937 37.8802 37.8802 38.5938 37 38.5938V41.4062C39.4335 41.4062 41.4062 39.4335 41.4062 37H38.5937ZM37 38.5938C36.1198 38.5938 35.4062 37.8802 35.4062 37H32.5937C32.5937 39.4335 34.5665 41.4062 37 41.4062V38.5938ZM35.4062 37C35.4062 36.1198 36.1198 35.4062 37 35.4062V32.5938C34.5665 32.5938 32.5937 34.5665 32.5937 37H35.4062ZM13 35.4062C13.8802 35.4062 14.5937 36.1198 14.5937 37H17.4062C17.4062 34.5665 15.4335 32.5938 13 32.5938V35.4062ZM14.5937 37C14.5937 37.8802 13.8802 38.5938 13 38.5938V41.4062C15.4335 41.4062 17.4062 39.4335 17.4062 37H14.5937ZM13 38.5938C12.1198 38.5938 11.4062 37.8802 11.4062 37H8.59372C8.59372 39.4335 10.5665 41.4062 13 41.4062V38.5938ZM11.4062 37C11.4062 36.1198 12.1198 35.4062 13 35.4062V32.5938C10.5665 32.5938 8.59372 34.5665 8.59372 37H11.4062ZM8.99997 22.5938H5.99997V25.4062H8.99997V22.5938ZM8.99997 28.5938H7.99997V31.4062H8.99997V28.5938ZM8.99997 16.5938H3.99997V19.4062H8.99997V16.5938ZM32.8445 35.5322C32.6817 35.9932 32.5937 36.4878 32.5937 37H35.4062C35.4062 36.8113 35.4384 36.6332 35.4964 36.4689L32.8445 35.5322ZM41.4062 37C41.4062 36.4878 41.3183 35.9932 41.1554 35.5322L38.5035 36.4689C38.5615 36.6332 38.5937 36.8113 38.5937 37H41.4062ZM8.8445 35.5322C8.68169 35.9932 8.59372 36.4878 8.59372 37H11.4062C11.4062 36.8113 11.4384 36.6332 11.4964 36.4689L8.8445 35.5322ZM17.4062 37C17.4062 36.4878 17.3183 35.9932 17.1554 35.5322L14.5035 36.4689C14.5615 36.6332 14.5937 36.8113 14.5937 37H17.4062Z" fill="black"/>
</svg>
